<?xml version="1.0" standalone="no"?>
<!DOCTYPE svg PUBLIC "-//W3C//DTD SVG 20010904//EN"
 "http://www.w3.org/TR/2001/REC-SVG-20010904/DTD/svg10.dtd">
<svg version="1.0" xmlns="http://www.w3.org/2000/svg"
 width="114.000000pt" height="114.000000pt" viewBox="0 0 114.000000 114.000000"
 preserveAspectRatio="xMidYMid meet">
<metadata>
Created by potrace 1.11, written by Peter Selinger 2001-2013
</metadata>
<g transform="translate(0.000000,114.000000) scale(0.100000,-0.100000)"
fill="#000000" stroke="none">
<path d="M510 1105 c-16 -17 -35 -25 -59 -26 -43 -1 -76 -12 -76 -26 0 -6 -23
-31 -52 -57 -56 -51 -97 -131 -74 -145 18 -12 4 -56 -36 -107 -33 -44 -36 -64
-8 -64 24 0 27 -49 5 -86 -24 -38 -22 -41 20 -19 34 18 36 15 14 -26 -15 -30
-15 -31 8 -23 53 17 63 12 60 -32 -3 -35 1 -45 25 -63 22 -18 25 -24 13 -31
-24 -16 -37 -12 -59 18 l-22 27 15 -37 c18 -46 2 -63 -26 -27 -22 27 -18 71 9
101 25 28 5 35 -35 12 -53 -30 -94 -92 -94 -140 0 -61 14 -154 22 -154 5 0 11
19 15 41 5 27 20 55 42 80 47 52 54 42 14 -18 -41 -62 -46 -83 -28 -125 12
-29 22 -37 51 -42 20 -4 36 -13 36 -20 0 -22 35 -46 66 -46 31 0 61 16 106 58
21 19 30 22 41 14 23 -19 96 -26 123 -12 23 13 27 11 73 -41 l49 -54 62 2 c75
3 104 20 120 68 14 42 0 121 -31 173 -12 21 -15 32 -7 30 18 -6 67 -98 68
-125 0 -13 5 -23 10 -23 6 0 10 12 10 26 0 15 5 44 11 64 7 21 9 54 5 75 -9
44 -79 125 -109 125 -20 0 -20 0 1 -23 26 -27 29 -79 7 -97 -21 -18 -33 -3
-37 45 -4 52 -35 59 -75 18 -16 -15 -37 -26 -48 -25 -11 2 -40 -4 -64 -13 -61
-21 -94 -19 -151 10 -59 30 -67 49 -12 29 53 -19 140 -17 187 5 22 10 55 34
72 54 39 45 49 47 28 7 -14 -27 -14 -30 1 -30 8 0 29 14 46 30 27 28 30 36 25
75 -4 39 -2 45 14 45 24 0 24 9 -1 40 -24 30 -25 50 -4 50 12 0 14 7 9 28 -4
20 0 36 15 54 l20 26 -39 31 c-43 34 -71 91 -45 91 20 0 18 7 -18 63 -24 37
-45 56 -82 73 -28 13 -59 24 -68 24 -21 0 -23 11 -5 29 10 11 3 12 -41 7 -29
-4 -60 -10 -69 -13 -13 -5 -15 -1 -11 20 6 34 -2 34 -32 2z m34 -140 c3 -13
16 -30 28 -36 19 -10 20 -9 15 11 -6 22 -5 22 22 -4 15 -14 38 -26 52 -26 40
-1 104 -35 129 -70 28 -39 38 -142 18 -180 -25 -47 -88 -34 -161 34 -33 31
-36 54 -5 32 28 -20 61 -20 98 -1 54 28 49 109 -7 120 -15 3 -44 10 -64 15
-49 13 -59 13 -59 -5 0 -8 4 -15 9 -15 5 0 4 -11 -2 -25 -10 -21 -19 -25 -53
-25 -28 0 -46 6 -59 20 -10 11 -13 20 -7 20 7 0 12 14 12 30 0 17 -4 30 -10
30 -5 0 -10 -7 -10 -15 0 -9 -20 -20 -53 -30 -72 -21 -90 -36 -90 -73 0 -86
128 -109 169 -31 13 26 20 30 51 27 35 -3 36 -4 40 -54 5 -64 -11 -83 -57 -64
-34 14 -40 40 -9 40 11 0 17 5 14 10 -13 21 -43 8 -89 -40 -57 -59 -92 -66
-125 -24 -21 27 -30 91 -11 79 13 -8 13 -4 -5 38 -17 41 -21 92 -6 68 7 -11
13 -7 24 20 8 19 28 50 45 69 28 33 31 34 55 21 33 -18 51 -10 68 28 17 37 25
39 33 6z m136 -179 c-6 -20 -16 -36 -20 -36 -5 0 -7 6 -5 13 19 55 26 69 31
64 3 -3 1 -22 -6 -41z m60 29 c0 -7 -29 -71 -36 -77 -17 -18 -21 6 -8 47 11
30 20 42 30 38 8 -3 14 -6 14 -8z m-321 -32 c-5 -16 -12 -34 -15 -42 -2 -8 -7
-11 -10 -8 -8 7 18 77 28 77 4 0 3 -12 -3 -27z m51 15 c0 -26 -25 -78 -37 -78
-16 0 -16 3 -1 51 10 36 38 55 38 27z m388 -38 c2 -24 -2 -48 -9 -54 -9 -8
-10 -2 -5 27 4 23 3 37 -4 37 -5 0 -10 9 -10 21 0 40 25 13 28 -31z m-584 -46
c10 -25 7 -34 -9 -28 -22 9 -18 -13 6 -30 19 -13 19 -36 0 -36 -12 0 -31 48
-31 80 0 32 23 42 34 14z m421 -132 c-21 -19 -98 -42 -138 -42 -25 0 -54 8
-72 20 l-30 20 65 -6 c36 -3 83 -1 105 4 52 13 82 14 70 4z m-80 -82 c-3 -5
-15 -10 -25 -10 -10 0 -22 5 -25 10 -4 6 7 10 25 10 18 0 29 -4 25 -10z m-175
-69 c5 -11 10 -24 10 -29 0 -9 -68 -27 -76 -20 -6 7 35 68 46 68 5 0 14 -9 20
-19z m398 -74 c4 -42 -3 -45 -38 -18 -24 19 -24 20 -5 40 25 29 39 22 43 -22z
m-528 -6 c0 -5 -8 -17 -17 -27 -23 -22 -44 -84 -37 -107 8 -26 21 -12 28 31 3
22 13 45 22 53 9 7 20 24 25 37 l9 23 41 -23 c51 -28 66 -45 52 -59 -8 -8 -17
-8 -31 0 -39 21 -46 11 -14 -18 20 -19 30 -35 26 -45 -7 -19 -8 -20 -43 -1
-37 18 -47 8 -20 -21 12 -12 18 -28 14 -34 -9 -14 -53 -4 -77 17 -16 15 -18
15 -18 0 0 -21 -9 -21 -32 0 -33 30 -18 96 35 151 33 35 37 37 37 23z m202
-16 c62 -29 106 -31 170 -8 40 14 51 15 75 3 l28 -13 -31 -13 c-40 -17 -57
-39 -51 -66 3 -13 2 -32 -3 -43 -4 -11 -3 -28 2 -39 10 -18 9 -18 -16 0 -17
13 -25 26 -22 39 2 11 7 35 11 52 7 29 4 34 -18 42 -14 6 -58 11 -99 13 l-73
3 -5 -62 c-5 -62 -5 -63 -59 -103 -50 -38 -84 -49 -95 -32 -2 4 4 8 14 9 11 1
38 16 60 34 29 23 40 40 40 59 0 15 7 33 15 40 24 20 18 62 -12 87 -26 21 -27
22 -6 23 11 0 45 -11 75 -25z m121 -74 c6 -6 4 -23 -4 -48 l-13 -38 -6 35 c-4
29 -10 35 -37 41 -29 6 -33 4 -39 -24 -8 -36 -24 -18 -24 27 l0 29 56 -6 c31
-3 61 -10 67 -16z m226 -8 c1 -16 2 -37 3 -48 1 -11 -1 -39 -5 -62 -4 -24 -3
-43 1 -43 18 0 29 47 27 110 l-2 65 15 -35 c20 -46 19 -112 -2 -144 -12 -20
-25 -26 -49 -25 -17 0 -26 3 -19 6 22 9 12 23 -12 17 -32 -8 -66 3 -66 21 0 8
11 17 25 21 37 9 30 24 -11 24 -31 0 -35 3 -32 22 2 16 13 25 41 33 42 12 39
25 -5 25 -17 0 -28 5 -28 14 0 19 15 24 72 25 45 1 47 0 47 -26z m-274 -43 c3
-5 -3 -10 -14 -10 -12 0 -21 5 -21 10 0 6 6 10 14 10 8 0 18 -4 21 -10z m-5
-40 c12 -8 9 -10 -13 -10 -16 0 -26 4 -22 10 8 12 16 12 35 0z"/>
<path d="M890 493 c0 -5 16 -18 35 -31 40 -25 46 -16 12 16 -23 22 -47 29 -47
15z"/>
</g>
</svg>
